<svg xmlns="http://www.w3.org/2000/svg" xmlns:xlink="http://www.w3.org/1999/xlink" version="1.1" x="0px" y="0px" viewBox="0 0 72 90" enable-background="new 0 0 72 72" xml:space="preserve"><g><path d="M58.9,13.3c-1.3-1.3-3-1.8-4.6-1.6c-0.3,0-0.6-0.2-0.7-0.5L51.8,1c-0.1-0.5-0.6-0.7-1-0.4L32.3,13.2   c-0.1,0.1-0.2,0.1-0.3,0.1l-11.7,2.1c-0.4,0.1-0.6,0.4-0.5,0.8l2.6,14.7c0.1,0.4,0.4,0.6,0.8,0.5l1.9-0.3c0.4-0.1,0.7,0.2,0.8,0.5   l2.3,12.9c0.1,0.4,0.4,0.6,0.8,0.5l5.3-0.9c0.4-0.1,0.6-0.4,0.5-0.8l-2.3-12.9c-0.1-0.4,0.2-0.7,0.5-0.8l1.9-0.3c0.1,0,0.2,0,0.3,0   l21.7,5.4c0.5,0.1,0.9-0.3,0.8-0.8l-1.8-10.1c-0.1-0.3,0.1-0.7,0.5-0.7c1.6-0.4,3-1.5,3.8-3.1C61.2,17.8,60.7,15,58.9,13.3z"/><path fill="#000000" d="M11.8,71.5h48.4c0.4,0,0.6-0.6,0.3-0.8L36.3,50.7c-0.2-0.1-0.4-0.1-0.6,0L11.5,70.7   C11.1,70.9,11.3,71.5,11.8,71.5z"/><path fill="#000000" d="M43.9,52.9l19.5,16c0.3,0.3,0.8,0,0.8-0.4V36.5c0-0.4-0.5-0.6-0.8-0.4l-19.5,16   C43.7,52.3,43.7,52.7,43.9,52.9z"/><path fill="#000000" d="M7.9,36.5v32.1c0,0.4,0.5,0.6,0.8,0.4l19.5-16c0.2-0.2,0.2-0.5,0-0.7l-19.5-16C8.3,35.8,7.9,36.1,7.9,36.5z   "/></g><text x="0" y="87" fill="#000000" font-size="5px" font-weight="bold" font-family="'Helvetica Neue', Helvetica, Arial-Unicode, Arial, Sans-serif">Created by Creative Stall</text><text x="0" y="92" fill="#000000" font-size="5px" font-weight="bold" font-family="'Helvetica Neue', Helvetica, Arial-Unicode, Arial, Sans-serif">from the Noun Project</text></svg>