<svg xmlns="http://www.w3.org/2000/svg" xmlns:xlink="http://www.w3.org/1999/xlink" version="1.1" x="0px" y="0px" viewBox="0 0 100 125" enable-background="new 0 0 100 100" xml:space="preserve"><path d="M8,67.403h24.593v24.593c0,0.552,0.448,1,1,1h32.815c0.552,0,1-0.448,1-1c0,0,0,0,0,0V67.403H92c0.552,0,1-0.448,1-1  c0,0,0,0,0,0V33.588c0-0.552-0.448-1-1-1H67.408V8.005c0-0.552-0.448-1-1-1H33.593c-0.552,0-1,0.448-1,1v0v24.583H8  c-0.552,0-1,0.448-1,1v0v32.815C7,66.955,7.447,67.403,8,67.403z M9,34.588h24.593c0.552,0,1-0.448,1-1c0,0,0,0,0,0V9.005h30.815  v24.583c0,0.552,0.448,1,1,1H91v30.815H66.407c-0.552,0-1,0.448-1,1v0v24.593H34.593V66.402c0-0.552-0.448-1-1-1H9V34.588z"/><path d="M33.956,50.904c0.64,4.27,4.024,7.106,7.33,9.82c3.278,2.691,6.527,5.308,7.735,8.802c0.089,0.402,0.415,0.708,0.822,0.772  c0,0,0.001,0,0.001,0c0.028,0.004,0.055,0.007,0.083,0.009c0.011,0.001,0.022,0.002,0.033,0.002c0.019,0.001,0.037,0.001,0.056,0  c0.021,0,0.041-0.001,0.062-0.003c0.006-0.001,0.013-0.001,0.019-0.002c0.434-0.04,0.793-0.357,0.885-0.783  c1.208-3.492,4.456-6.107,7.733-8.798c3.306-2.714,6.69-5.551,7.33-9.82c0,0,0,0,0,0c0.934-6.26-2.16-10.177-6.044-11.406  C56.532,38.4,52.479,39.213,50,41.763c-1.785-1.836-4.386-2.773-6.998-2.742c-1.015,0.012-2.032,0.17-3.002,0.477  C36.116,40.727,33.021,44.644,33.956,50.904C33.956,50.904,33.956,50.904,33.956,50.904z M40.603,41.405  c0.77-0.244,1.584-0.362,2.399-0.365h0c2.445-0.008,4.899,1.026,6.179,2.857c0.317,0.453,0.94,0.563,1.393,0.246  c0.096-0.067,0.179-0.15,0.246-0.246c1.707-2.442,5.499-3.466,8.577-2.492c3.078,0.974,5.498,3.654,4.669,9.203c0,0,0,0,0,0.001  c-0.503,3.353-3.339,5.875-6.621,8.57c-2.706,2.222-5.682,4.531-7.445,7.675c-1.764-3.143-4.739-5.453-7.445-7.675  c-3.282-2.695-6.118-5.217-6.621-8.57C35.105,45.059,37.524,42.379,40.603,41.405z"/><text x="0" y="115" fill="#000000" font-size="5px" font-weight="bold" font-family="'Helvetica Neue', Helvetica, Arial-Unicode, Arial, Sans-serif">Created by AliWijaya</text><text x="0" y="120" fill="#000000" font-size="5px" font-weight="bold" font-family="'Helvetica Neue', Helvetica, Arial-Unicode, Arial, Sans-serif">from the Noun Project</text></svg>