<svg xmlns="http://www.w3.org/2000/svg" data-name="Layer 1" viewBox="0 0 100 125" x="0px" y="0px"><title>Artboard 10</title><path d="M13.23,10.61a9.61,9.61,0,1,1,9.61,9.61A9.61,9.61,0,0,1,13.23,10.61ZM6.07,31.21V49.78A7.4,7.4,0,0,0,12,57v37.2A4.7,4.7,0,0,0,16.16,99a4.56,4.56,0,0,0,5-4.54V67.85a1.73,1.73,0,0,1,1.39-1.74,1.67,1.67,0,0,1,2,1.65V94.24A4.7,4.7,0,0,0,28.63,99a4.56,4.56,0,0,0,5-4.54v-57l4.54,5.94a4.3,4.3,0,0,0,5.24,1.28L58,37.82a4.42,4.42,0,0,0,2.41-5.31A4.3,4.3,0,0,0,54.48,30L42.9,35.42l-7.43-9.86a4.23,4.23,0,0,0-3.29-1.76H13.47A7.4,7.4,0,0,0,6.07,31.21Zm62,9.83a1.86,1.86,0,0,1,2.59,0l.87.85c5.13,5,11,7.21,19.16,7.21H92A1.86,1.86,0,0,1,93.81,51v1.25c0,1.36,0,2.78.06,4.27.27,14.34.65,34-23.47,42.35a3.11,3.11,0,0,1-2,0h0c-24.12-8.36-23.74-28-23.47-42.35,0-1.5.06-2.91.06-4.27V51A1.86,1.86,0,0,1,46.8,49.1h1.25c8.12,0,14-2.22,19.15-7.21ZM66.57,70.15,63,66.6a1.67,1.67,0,0,0-2.3,0l-2.46,2.46a1.63,1.63,0,0,0,0,2.3l7.16,7.17a1.63,1.63,0,0,0,2.3,0L80.5,65.75a1.63,1.63,0,0,0,0-2.3L78,61a1.63,1.63,0,0,0-2.3,0Z"/><text x="0" y="115" fill="#000000" font-size="5px" font-weight="bold" font-family="'Helvetica Neue', Helvetica, Arial-Unicode, Arial, Sans-serif">Created by Gregor Cresnar</text><text x="0" y="120" fill="#000000" font-size="5px" font-weight="bold" font-family="'Helvetica Neue', Helvetica, Arial-Unicode, Arial, Sans-serif">from the Noun Project</text></svg>