<svg xmlns="http://www.w3.org/2000/svg" xmlns:xlink="http://www.w3.org/1999/xlink" version="1.1" x="0px" y="0px" viewBox="0 0 1024 1280" style="enable-background:new 0 0 1024 1024;" xml:space="preserve"><g><g><g><path d="M867,607.4c0,4.2-0.3,8.3-0.9,12.5c0.4-2.7,0.7-5.3,1.1-8c-1.1,7.6-3.1,14.9-6,22.1c1-2.4,2-4.8,3-7.2     c-2.3,5.3-4.9,10.3-8.1,15.1c-0.7,1.1-1.5,2.1-2.3,3.2c-3,4.3,5-5.9,1.5-1.9c-1.9,2.1-3.7,4.3-5.7,6.3c-2,2-4.1,3.9-6.3,5.7     c-3.7,3.2,6.2-4.4,1.9-1.5c-1.1,0.8-2.1,1.5-3.2,2.3c-4.8,3.2-9.8,5.9-15.1,8.1c2.4-1,4.8-2,7.2-3c-7.1,2.9-14.5,4.9-22.1,6     c2.7-0.4,5.3-0.7,8-1.1c-10.8,1.4-21.9,0.9-32.8,0.9c-20,0-40,0-60,0c-54.6,0-109.3,0-163.9,0c-32.4,0-64.8-0.8-97.2,0     c-10.2,0.2-18.1,4.8-24.5,12c-4.6,5.2-9.2,10.4-13.8,15.5c-16.1,18.2-32.3,36.4-48.4,54.6c-28.8,32.5-57.7,65-86.5,97.5     c-0.5,0.6-1.1,1.2-1.6,1.8c17.1,7.1,34.1,14.1,51.2,21.2c0-19.4,0-38.8,0-58.3c0-31,0-61.9,0-92.9c0-7.1,0-14.3,0-21.4     c0-16.2-13.7-30-30-30c-29.4,0-58.9,0-88.3,0c-6.8,0-13.4,0-20.2-0.9c2.7,0.4,5.3,0.7,8,1.1c-7.6-1.1-14.9-3.1-22.1-6     c2.4,1,4.8,2,7.2,3c-5.3-2.3-10.3-4.9-15.1-8.1c-1.1-0.7-2.1-1.5-3.2-2.3c-4.3-3,5.9,5,1.9,1.5c-2.1-1.9-4.3-3.7-6.3-5.7     c-2-2-3.9-4.1-5.7-6.3c-3.2-3.7,4.4,6.2,1.5,1.9c-0.8-1.1-1.5-2.1-2.3-3.2c-3.2-4.8-5.9-9.8-8.1-15.1c1,2.4,2,4.8,3,7.2     c-2.9-7.1-4.9-14.5-6-22.1c0.4,2.7,0.7,5.3,1.1,8c-1.9-14.7-0.9-30.2-0.9-45c0-29.4,0-58.8,0-88.3c0-36,0-71.9,0-107.9     c0-30.8,0-61.6,0-92.3c0-13.8-0.1-27.6,0-41.3c0-4.2,0.3-8.4,0.9-12.6c-0.4,2.7-0.7,5.3-1.1,8c1.1-7.6,3.1-14.9,6-22.1     c-1,2.4-2,4.8-3,7.2c2.3-5.3,4.9-10.3,8.1-15.1c0.7-1.1,1.5-2.1,2.3-3.2c3-4.3-5,5.9-1.5,1.9c1.9-2.1,3.7-4.3,5.7-6.3     c2-2,4.1-3.9,6.3-5.7c3.7-3.2-6.2,4.4-1.9,1.5c1.1-0.8,2.1-1.5,3.2-2.3c4.8-3.2,9.8-5.9,15.1-8.1c-2.4,1-4.8,2-7.2,3     c7.1-2.9,14.5-4.9,22.1-6c-2.7,0.4-5.3,0.7-8,1.1c8.6-1.1,17.4-0.9,26-0.9c14,0,28,0,42,0c47.5,0,95.1,0,142.6,0     c58,0,116,0,174,0c49.9,0,99.9,0,149.8,0c22.9,0,45.8-0.1,68.7,0c4.3,0,8.6,0.3,12.9,0.9c-2.7-0.4-5.3-0.7-8-1.1     c7.6,1.1,14.9,3.1,22.1,6c-2.4-1-4.8-2-7.2-3c5.3,2.3,10.3,4.9,15.1,8.1c1.1,0.7,2.1,1.5,3.2,2.3c4.3,3-5.9-5-1.9-1.5     c2.1,1.9,4.3,3.7,6.3,5.7c2,2,3.9,4.1,5.7,6.3c3.2,3.7-4.4-6.2-1.5-1.9c0.8,1.1,1.5,2.1,2.3,3.2c3.2,4.8,5.9,9.8,8.1,15.1     c-1-2.4-2-4.8-3-7.2c2.9,7.1,4.9,14.5,6,22.1c-0.4-2.7-0.7-5.3-1.1-8c1.9,14.5,0.9,29.6,0.9,44.1c0,28.6,0,57.2,0,85.8     c0,35.4,0,70.9,0,106.3c0,30.8,0,61.6,0,92.4c0,15.2-0.3,30.3,0,45.5C867,606.9,867,607.1,867,607.4c0,15.7,13.8,30.7,30,30     c16.3-0.7,30-13.2,30-30c0-15,0-30.1,0-45.1c0-34.6,0-69.2,0-103.8c0-38.8,0-77.5,0-116.3c0-27.6,0-55.3,0-82.9     c0-4.7,0-9.5,0-14.2c-0.2-31.1-12.4-61.3-34.1-83.7c-22.3-22.9-53.6-35.7-85.5-35.9c-2.8,0-5.7,0-8.5,0c-18.9,0-37.7,0-56.6,0     c-31.4,0-62.8,0-94.2,0c-38.4,0-76.8,0-115.2,0c-39.3,0-78.5,0-117.8,0c-34.6,0-69.3,0-103.9,0c-23.9,0-47.8,0-71.7,0     c-16.5,0-32.6-0.5-48.9,2.9c-32.1,6.5-60.9,28.3-77.4,56.3C102.2,203.5,97,225.1,97,246.9c0,19.9,0,39.8,0,59.7     c0,36.5,0,73.1,0,109.6c0,38,0,75.9,0,113.9c0,23.7,0,47.3,0,71c0,12.4,0.8,24.7,3.9,36.8c8.2,31.5,30.4,59.9,59.3,75     c20.4,10.6,41.8,14.1,64.5,14.1c17.9,0,35.7,0,53.6,0c11.4,0,22.8,0,34.2,0c-10-10-20-20-30-30c0,19.4,0,38.8,0,58.3     c0,31,0,61.9,0,92.9c0,7.1,0,14.3,0,21.4c0,12,7.5,22.8,18.4,27.4c10.5,4.4,24.8,2.8,32.8-6.2c17.3-19.5,34.5-38.9,51.8-58.4     c27.5-31,55-62,82.5-93c6.3-7.1,12.5-14.1,18.8-21.2c-7.1,2.9-14.1,5.9-21.2,8.8c16.3,0,32.5,0,48.8,0c36.4,0,72.8,0,109.2,0     c38.5,0,76.9,0,115.4,0c22,0,44,0,66,0c21.3,0,41.9-4.8,60.6-15c28.9-15.8,51.3-45.1,58.4-77.3c1.9-8.9,3.1-18.1,3.1-27.2     c0.1-15.7-13.9-30.7-30-30C880.7,578.1,867.2,590.5,867,607.4z"/></g></g><g><g><path d="M279,377.4c15,0,30,0,45,0c36,0,72.1,0,108.1,0c43.4,0,86.8,0,130.3,0c37.7,0,75.3,0,113,0     c18.2,0,36.5,0.4,54.8,0c0.3,0,0.5,0,0.8,0c15.7,0,30.7-13.8,30-30c-0.7-16.3-13.2-30-30-30c-15,0-30,0-45,0     c-36,0-72.1,0-108.1,0c-43.4,0-86.8,0-130.3,0c-37.7,0-75.3,0-113,0c-18.2,0-36.5-0.4-54.8,0c-0.3,0-0.5,0-0.8,0     c-15.7,0-30.7,13.8-30,30C249.7,363.7,262.1,377.4,279,377.4L279,377.4z"/></g></g><g><g><path d="M279,539.4c34.3,0,68.6,0,102.8,0c54.2,0,108.5,0,162.7,0c12.5,0,25,0,37.5,0c15.7,0,30.7-13.8,30-30     c-0.7-16.3-13.2-30-30-30c-34.3,0-68.6,0-102.8,0c-54.2,0-108.5,0-162.7,0c-12.5,0-25,0-37.5,0c-15.7,0-30.7,13.8-30,30     C249.7,525.7,262.1,539.4,279,539.4L279,539.4z"/></g></g></g><text x="0" y="1039" fill="#000000" font-size="5px" font-weight="bold" font-family="'Helvetica Neue', Helvetica, Arial-Unicode, Arial, Sans-serif">Created by shashank singh</text><text x="0" y="1044" fill="#000000" font-size="5px" font-weight="bold" font-family="'Helvetica Neue', Helvetica, Arial-Unicode, Arial, Sans-serif">from the Noun Project</text></svg>