<svg xmlns:dc="http://purl.org/dc/elements/1.1/" xmlns:cc="http://creativecommons.org/ns#" xmlns:rdf="http://www.w3.org/1999/02/22-rdf-syntax-ns#" xmlns:svg="http://www.w3.org/2000/svg" xmlns="http://www.w3.org/2000/svg" xmlns:sodipodi="http://sodipodi.sourceforge.net/DTD/sodipodi-0.dtd" xmlns:inkscape="http://www.inkscape.org/namespaces/inkscape" version="1.1" x="0px" y="0px" viewBox="0 0 100 125"><g transform="translate(0,-952.36218)"><path d="m 53.821094,992.42578 a 2.0002005,2.0002005 0 0 0 -1.671671,0.8265 c -2.27421,3.04952 -5.91722,5.02709 -10.05958,5.02709 -4.142269,0 -7.774969,-1.97521 -10.061689,-5.0299 a 2.0002005,2.0002005 0 1 0 -3.202236,2.39699 c 3.014556,4.027 7.844065,6.63294 13.263925,6.63294 5.419961,0 10.25917,-2.60357 13.266121,-6.63575 a 2.0002005,2.0002005 0 0 0 -1.53487,-3.21787 z" style="text-indent:0;text-transform:none;direction:ltr;block-progression:tb;baseline-shift:baseline;color:#000000;enable-background:accumulate;" fill="#000000" fill-opacity="1" fill-rule="evenodd" stroke="none" marker="none" visibility="visible" display="inline" overflow="visible"/><path d="m 54.362943,1031.8173 a 2.0002005,2.0002005 0 1 0 0,3.9999 l 9.47234,0 a 2.0002005,2.0002005 0 1 0 0,-3.9999 l -9.47234,0 z" style="text-indent:0;text-transform:none;direction:ltr;block-progression:tb;baseline-shift:baseline;color:#000000;enable-background:accumulate;" fill="#000000" fill-opacity="1" fill-rule="evenodd" stroke="none" marker="none" visibility="visible" display="inline" overflow="visible"/><path style="text-indent:0;text-transform:none;direction:ltr;block-progression:tb;baseline-shift:baseline;color:#000000;enable-background:accumulate;" d="m 65.625033,959.38903 c -4.50713,0 -8.67539,1.47689 -12.03132,3.96875 -3.45542,-1.7547 -7.36211,-2.75 -11.49997,-2.75 -13.987268,0 -25.375045,11.33905 -25.375045,25.25001 0,10.10799 6.012013,18.82071 14.656315,22.84381 -14.684413,4.5988 -25.3750465,18.3753 -25.3750465,34.6249 0,0.2618 0.05609,0.5394 0.156187,0.7812 0.100192,0.2419 0.25248,0.4712 0.437565,0.6563 0.185085,0.1851 0.414366,0.3373 0.656247,0.4374 0.24178,0.1003 0.48826,0.125 0.750039,0.125 22.7620585,0.02 45.4377185,0 68.1873785,0 0.26178,0 0.508261,-0.025 0.750041,-0.125 0.24188,-0.1001 0.47116,-0.2523 0.65624,-0.4374 0.18529,-0.1851 0.337379,-0.4144 0.437569,-0.6563 0.10019,-0.2418 0.156181,-0.5194 0.156181,-0.7812 0,-6.3398 -1.645361,-12.2781 -4.500031,-17.4687 l 18.312621,0 c 0.26167,0 0.53925,-0.056 0.781229,-0.1562 0.241881,-0.1002 0.439871,-0.2525 0.624951,-0.4375 0.18509,-0.1851 0.337269,-0.4144 0.43757,-0.6563 0.10029,-0.2419 0.15628,-0.4881 0.15628,-0.7499 0,-12.3851 -7.90046,-22.9505 -18.90636,-26.87511 6.31048,-3.37226 10.62503,-10.01866 10.62503,-17.62501 0,-11.01864 -9.02816,-19.96875 -20.09367,-19.96875 z m -23.53129,5.21875 c 11.83884,0 21.37497,9.51483 21.37497,21.25001 0,11.74601 -9.53503,21.21871 -21.37497,21.21871 -11.83994,0 -21.375069,-9.4727 -21.375069,-21.21871 0,-11.73518 9.536129,-21.25001 21.375069,-21.25001 z m -10.37506,48.18762 8.37502,8.1874 0,20.3437 -30.031266,0 c 0.806535,-13.3128 9.620421,-24.405 21.656246,-28.5311 z m 20.75002,0 c 12.03582,4.1261 20.84981,15.2183 21.65634,28.5311 l -30.03136,0 0,-20.3437 z" fill="#000000" fill-opacity="1" fill-rule="evenodd" stroke="none" marker="none" visibility="visible" display="inline" overflow="visible"/></g><text x="0" y="115" fill="#000000" font-size="5px" font-weight="bold" font-family="'Helvetica Neue', Helvetica, Arial-Unicode, Arial, Sans-serif">Created by GreenHill</text><text x="0" y="120" fill="#000000" font-size="5px" font-weight="bold" font-family="'Helvetica Neue', Helvetica, Arial-Unicode, Arial, Sans-serif">from the Noun Project</text></svg>