<svg xmlns:dc="http://purl.org/dc/elements/1.1/" xmlns:cc="http://creativecommons.org/ns#" xmlns:rdf="http://www.w3.org/1999/02/22-rdf-syntax-ns#" xmlns:svg="http://www.w3.org/2000/svg" xmlns="http://www.w3.org/2000/svg" xmlns:sodipodi="http://sodipodi.sourceforge.net/DTD/sodipodi-0.dtd" xmlns:inkscape="http://www.inkscape.org/namespaces/inkscape" viewBox="0 0 8.4666665 10.583333625" version="1.1" x="0px" y="0px"><g transform="translate(0,-288.53332)"><path style="color:#000000;font-style:normal;font-variant:normal;font-weight:normal;font-stretch:normal;font-size:medium;line-height:normal;font-family:sans-serif;text-indent:0;text-align:start;text-decoration:none;text-decoration-line:none;text-decoration-style:solid;text-decoration-color:#000000;letter-spacing:normal;word-spacing:normal;text-transform:none;direction:ltr;writing-mode:lr-tb;baseline-shift:baseline;text-anchor:start;white-space:normal;clip-rule:nonzero;display:inline;overflow:visible;visibility:visible;opacity:1;isolation:auto;mix-blend-mode:normal;color-interpolation:sRGB;color-interpolation-filters:linearRGB;solid-color:#000000;solid-opacity:1;fill:#000000;fill-opacity:1;fill-rule:nonzero;stroke:none;stroke-width:1;stroke-linecap:round;stroke-linejoin:round;stroke-miterlimit:4;stroke-dasharray:none;stroke-dashoffset:0;stroke-opacity:1;color-rendering:auto;image-rendering:auto;shape-rendering:auto;text-rendering:auto;enable-background:accumulate" d="m 3.6859763,291.31049 a 0.1323049,0.13230491 0 0 0 -0.012912,0 0.1323049,0.13230491 0 0 0 -0.102317,0.2036 l 0.1002507,0.16124 -2.4680652,1.54667 c -0.60947565,0.38198 -0.93341033,1.11554 -0.6159844,1.78388 a 0.1323049,0.13230491 0 0 0 0.18965333,0.0553 l 3.59719577,-2.25258 0.098703,0.15915 a 0.1323049,0.13230491 0 1 0 0.2247926,-0.13952 l -0.9017529,-1.45365 a 0.1323049,0.13230491 0 0 0 -0.109556,-0.0646 z m 0.088368,0.53846 0.304374,0.48731 c 0,0 -0.2552911,0.1774 -0.3979095,0.23566 -0.1555353,0.0636 -0.344125,0.0359 -0.489376,0.12039 -0.1416235,0.0823 -0.1959319,0.27635 -0.3384788,0.35708 -0.1340273,0.076 -0.3178281,0.0217 -0.4506198,0.0997 -0.1841315,0.10822 -0.2404084,0.37299 -0.4258125,0.47903 -0.1184884,0.0678 -0.2662053,0.0931 -0.402045,0.0796 -0.134157,-0.0132 -0.3026251,-0.0926 -0.4340807,-0.16071 0.077269,-0.0769 0.161462,-0.14867 0.2573496,-0.20878 z"/><path style="color:#000000;font-style:normal;font-variant:normal;font-weight:normal;font-stretch:normal;font-size:medium;line-height:normal;font-family:sans-serif;text-indent:0;text-align:start;text-decoration:none;text-decoration-line:none;text-decoration-style:solid;text-decoration-color:#000000;letter-spacing:normal;word-spacing:normal;text-transform:none;direction:ltr;writing-mode:lr-tb;baseline-shift:baseline;text-anchor:start;white-space:normal;clip-rule:nonzero;display:inline;overflow:visible;visibility:visible;opacity:1;isolation:auto;mix-blend-mode:normal;color-interpolation:sRGB;color-interpolation-filters:linearRGB;solid-color:#000000;solid-opacity:1;fill:#000000;fill-opacity:1;fill-rule:evenodd;stroke:none;stroke-width:0.99999994;stroke-linecap:round;stroke-linejoin:round;stroke-miterlimit:4;stroke-dasharray:none;stroke-dashoffset:0;stroke-opacity:1;color-rendering:auto;image-rendering:auto;shape-rendering:auto;text-rendering:auto;enable-background:accumulate" d="m 6.8164073,290.07314 c -0.1001289,-0.0313 -0.2125186,-0.0236 -0.3105758,0.0315 l -0.9482614,0.53329 a 0.13230489,0.1323049 0 0 0 -0.060979,0.15658 l 0.02376,0.0718 c 0.1149245,0.34904 0.5290238,0.50493 0.8423276,0.31469 l 0.1875843,-0.11419 a 0.13230489,0.1323049 0 1 0 -0.137459,-0.22582 l -0.1870684,0.11369 c -0.1623113,0.0986 -0.3542665,0.0233 -0.4314984,-0.14676 l 0.841293,-0.47284 c 0.06712,-0.0378 0.146386,-0.013 0.1813825,0.0579 l 0.017066,0.0336 c 0.071424,0.14456 0.1046136,0.30556 0.096634,0.46714 l -0.033589,0.68213 c -0.013467,0.2727 0.065069,0.54162 0.2232422,0.76327 l 0.641821,0.89969 a 0.13230489,0.1323049 0 1 0 0.2154899,-0.15349 l -0.641821,-0.89969 c -0.123399,-0.1729 -0.1852083,-0.38346 -0.1746647,-0.59685 l 0.033589,-0.68214 c 0.010186,-0.20654 -0.03206,-0.41228 -0.1235075,-0.59738 l -0.017039,-0.0336 c -0.049832,-0.10088 -0.1375833,-0.17126 -0.2377122,-0.20259 z"/><path style="color:#000000;font-style:normal;font-variant:normal;font-weight:normal;font-stretch:normal;font-size:medium;line-height:normal;font-family:sans-serif;text-indent:0;text-align:start;text-decoration:none;text-decoration-line:none;text-decoration-style:solid;text-decoration-color:#000000;letter-spacing:normal;word-spacing:normal;text-transform:none;direction:ltr;writing-mode:lr-tb;baseline-shift:baseline;text-anchor:start;white-space:normal;clip-rule:nonzero;display:inline;overflow:visible;visibility:visible;opacity:1;isolation:auto;mix-blend-mode:normal;color-interpolation:sRGB;color-interpolation-filters:linearRGB;solid-color:#000000;solid-opacity:1;fill:#000000;fill-opacity:1;fill-rule:evenodd;stroke:none;stroke-width:1;stroke-linecap:round;stroke-linejoin:round;stroke-miterlimit:4;stroke-dasharray:none;stroke-dashoffset:0;stroke-opacity:1;color-rendering:auto;image-rendering:auto;shape-rendering:auto;text-rendering:auto;enable-background:accumulate" d="m 4.6222256,289.80134 c -0.096285,-0.0228 -0.2011733,-0.0109 -0.2924889,0.0413 l -0.065111,0.0377 c -0.083375,0.0477 -0.1392238,0.12721 -0.1596814,0.21394 a 0.1323049,0.13230491 0 1 0 0.2573497,0.0605 c 0.00439,-0.0185 0.014975,-0.0343 0.033589,-0.0449 l 0.06563,-0.0372 c 0.06404,-0.0366 0.1419596,-0.018 0.1829356,0.0434 l 0.5358844,0.80407 a 0.1323049,0.13230491 0 1 0 0.2201413,-0.14624 l -0.5358844,-0.8046 c -0.058314,-0.0876 -0.1460791,-0.1452 -0.2423637,-0.16795 z"/><path style="color:#000000;font-style:normal;font-variant:normal;font-weight:normal;font-stretch:normal;font-size:medium;line-height:normal;font-family:sans-serif;text-indent:0;text-align:start;text-decoration:none;text-decoration-line:none;text-decoration-style:solid;text-decoration-color:#000000;letter-spacing:normal;word-spacing:normal;text-transform:none;direction:ltr;writing-mode:lr-tb;baseline-shift:baseline;text-anchor:start;white-space:normal;clip-rule:nonzero;display:inline;overflow:visible;visibility:visible;opacity:1;isolation:auto;mix-blend-mode:normal;color-interpolation:sRGB;color-interpolation-filters:linearRGB;solid-color:#000000;solid-opacity:1;fill:#000000;fill-opacity:1;fill-rule:evenodd;stroke:none;stroke-width:1;stroke-linecap:round;stroke-linejoin:round;stroke-miterlimit:4;stroke-dasharray:none;stroke-dashoffset:0;stroke-opacity:1;color-rendering:auto;image-rendering:auto;shape-rendering:auto;text-rendering:auto;enable-background:accumulate" d="m 5.1121202,289.47061 c -0.094776,-0.0233 -0.1975644,-0.0114 -0.2868057,0.0418 l -0.063045,0.0377 a 0.13231983,0.13231984 0 1 0 0.1353926,0.22739 l 0.063045,-0.0377 c 0.058735,-0.035 0.1262989,-0.019 0.1658805,0.0429 l 0.5152152,0.80459 A 0.13245976,0.13245977 0 1 0 5.865045,290.4447 l -0.5152152,-0.8046 c -0.055991,-0.0875 -0.1429358,-0.14626 -0.2377096,-0.16949 z"/><path style="color:#000000;font-style:normal;font-variant:normal;font-weight:normal;font-stretch:normal;font-size:medium;line-height:normal;font-family:sans-serif;text-indent:0;text-align:start;text-decoration:none;text-decoration-line:none;text-decoration-style:solid;text-decoration-color:#000000;letter-spacing:normal;word-spacing:normal;text-transform:none;direction:ltr;writing-mode:lr-tb;baseline-shift:baseline;text-anchor:start;white-space:normal;clip-rule:nonzero;display:inline;overflow:visible;visibility:visible;opacity:1;isolation:auto;mix-blend-mode:normal;color-interpolation:sRGB;color-interpolation-filters:linearRGB;solid-color:#000000;solid-opacity:1;fill:#000000;fill-opacity:1;fill-rule:evenodd;stroke:none;stroke-width:1;stroke-linecap:round;stroke-linejoin:round;stroke-miterlimit:4;stroke-dasharray:none;stroke-dashoffset:0;stroke-opacity:1;color-rendering:auto;image-rendering:auto;shape-rendering:auto;text-rendering:auto;enable-background:accumulate" d="m 5.6412869,289.20602 c -0.094782,-0.0233 -0.1975776,-0.0114 -0.2868057,0.0419 l -0.063045,0.0377 a 0.13231983,0.13231984 0 1 0 0.1353926,0.22738 l 0.063045,-0.0377 c 0.058764,-0.035 0.1263015,-0.0196 0.1658805,0.0424 l 0.5152152,0.8046 a 0.13245976,0.13245977 0 1 0 0.2232422,-0.14264 l -0.5152152,-0.80459 c -0.055991,-0.0875 -0.1429306,-0.14629 -0.2377096,-0.1695 z"/><path style="color:#000000;font-style:normal;font-variant:normal;font-weight:normal;font-stretch:normal;font-size:medium;line-height:normal;font-family:sans-serif;text-indent:0;text-align:start;text-decoration:none;text-decoration-line:none;text-decoration-style:solid;text-decoration-color:#000000;letter-spacing:normal;word-spacing:normal;text-transform:none;direction:ltr;writing-mode:lr-tb;baseline-shift:baseline;text-anchor:start;white-space:normal;clip-rule:nonzero;display:inline;overflow:visible;visibility:visible;opacity:1;isolation:auto;mix-blend-mode:normal;color-interpolation:sRGB;color-interpolation-filters:linearRGB;solid-color:#000000;solid-opacity:1;fill:#000000;fill-opacity:1;fill-rule:evenodd;stroke:none;stroke-width:1;stroke-linecap:round;stroke-linejoin:round;stroke-miterlimit:4;stroke-dasharray:none;stroke-dashoffset:0;stroke-opacity:1;color-rendering:auto;image-rendering:auto;shape-rendering:auto;text-rendering:auto;enable-background:accumulate" d="m 4.4093207,290.39562 c -0.099258,-0.0222 -0.2069518,-0.008 -0.2992067,0.0496 l -0.091985,0.0574 c -0.1806045,0.11223 -0.2365295,0.35404 -0.1229889,0.53382 0,0 0.8016373,1.26907 1.2025101,1.90376 0.068072,0.10776 0.1850126,0.22503 0.3601853,0.26871 0.1219359,0.0304 0.2228665,0.10787 0.2769843,0.2155 l 0.4960938,0.98753 a 0.1323049,0.13230491 0 1 0 0.2361618,-0.11885 L 5.9709815,293.3055 c -0.090535,-0.18002 -0.2572464,-0.30511 -0.4490693,-0.35292 -0.094485,-0.0236 -0.1580859,-0.0863 -0.2005039,-0.15349 -0.4008729,-0.63468 -1.2025101,-1.90428 -1.2025101,-1.90428 -0.03688,-0.0584 -0.020505,-0.13113 0.038756,-0.16796 l 0.091985,-0.0568 c 0.064011,-0.0398 0.1452774,-0.0214 0.1855179,0.0413 l 0.3245273,0.50797 a 0.13245976,0.13245977 0 1 0 0.2232422,-0.14263 l -0.3250433,-0.50798 c -0.058547,-0.0915 -0.149307,-0.15076 -0.2485628,-0.17311 z"/><path d="m 2.050756,296.07405 c 0,0.14613 -0.1184566,0.26458 -0.2645833,0.26458 -0.1461241,0 -0.2645834,-0.11845 -0.2645834,-0.26458 0,-0.14613 0.2645834,-0.52917 0.2645834,-0.52917 0,0 0.2645833,0.38304 0.2645833,0.52917 z" style="opacity:1;fill:#000000;fill-opacity:1;stroke:none;stroke-width:1;stroke-linecap:round;stroke-linejoin:round;stroke-miterlimit:4;stroke-dasharray:none;stroke-dashoffset:0;stroke-opacity:1"/><path style="opacity:1;fill:#000000;fill-opacity:1;stroke:none;stroke-width:1;stroke-linecap:round;stroke-linejoin:round;stroke-miterlimit:4;stroke-dasharray:none;stroke-dashoffset:0;stroke-opacity:1" d="m 2.8445087,295.01572 c 0,0.14613 -0.1184593,0.26458 -0.2645833,0.26458 -0.1461268,0 -0.2645834,-0.11845 -0.2645834,-0.26458 0,-0.14613 0.2645834,-0.52917 0.2645834,-0.52917 0,0 0.2645833,0.38304 0.2645833,0.52917 z"/></g><text x="0" y="23.4666669" fill="#000000" font-size="5px" font-weight="bold" font-family="'Helvetica Neue', Helvetica, Arial-Unicode, Arial, Sans-serif">Created by anbileru adaleru</text><text x="0" y="28.4666669" fill="#000000" font-size="5px" font-weight="bold" font-family="'Helvetica Neue', Helvetica, Arial-Unicode, Arial, Sans-serif">from the Noun Project</text></svg>