<svg xmlns="http://www.w3.org/2000/svg" 
    xmlns:xlink="http://www.w3.org/1999/xlink" version="1.1" x="0px" y="0px" viewBox="0 0 96 120" style="enable-background:new 0 0 96 96;" xml:space="preserve">
    <path d="M48,88c-10.7,0-20.7-4.2-28.3-11.7C12.1,68.7,8,58.7,8,48s4.2-20.7,11.7-28.3C27.3,12.1,37.3,8,48,8s20.7,4.2,28.3,11.7  C83.9,27.3,88,37.3,88,48s-4.2,20.7-11.7,28.3C68.7,83.8,58.7,88,48,88z M48,13c-19.3,0-35,15.7-35,35s15.7,35,35,35s35-15.7,35-35  S67.3,13,48,13z"/>
    <circle cx="35.3" cy="35.8" r="5.4"/>
    <circle cx="60.7" cy="35.7" r="5.4"/>
    <path d="M34.8,72.4L31.7,67l8.1-4.6l-2-1.2l-7.6,4.3c-0.7,0.4-0.9,1.2-0.5,1.9l3.7,6.5c0.2,0.3,0.5,0.5,0.8,0.6c0.1,0,0.2,0,0.4,0  s0.5-0.1,0.7-0.2L48,67.1l-2-1.2L34.8,72.4z"/>
    <path d="M61.2,50l3.1,5.4l-8.1,4.7l2,1.2l7.6-4.4c0.3-0.2,0.5-0.5,0.6-0.8c0.1-0.4,0-0.7-0.1-1l-3.7-6.5c-0.2-0.3-0.5-0.5-0.8-0.6  c-0.4-0.1-0.7,0-1,0.1L48,55.3l2,1.2L61.2,50z M61.7,49.7L61.7,49.7L61.7,49.7z"/>
    <polygon points="39.8,62.4 46,65.9 48,64.8 41.8,61.2 "/>
    <path d="M66.5,66.5c-0.1-0.4-0.3-0.6-0.6-0.8l-7.7-4.4l-2,1.2l8.2,4.8l-3.1,5.4L50,66l-2,1.1l12.8,7.5c0.2,0.1,0.4,0.2,0.7,0.2  c0.1,0,0.2,0,0.4,0c0.4-0.1,0.6-0.3,0.8-0.6l3.7-6.5C66.5,67.2,66.6,66.8,66.5,66.5z M64.6,66.5L64.6,66.5L64.6,66.5z"/>
    <path d="M31.7,55.4l3.1-5.4L46,56.5l2-1.2L35.3,48c-0.3-0.2-0.7-0.2-1-0.1c-0.4,0.1-0.6,0.3-0.8,0.6L29.8,55c-0.2,0.3-0.2,0.7-0.1,1  c0.1,0.4,0.3,0.6,0.6,0.8l7.5,4.4l2-1.1L31.7,55.4z M31.4,56L31.4,56L31.4,56z"/>
    <polygon points="56.2,60.1 50,56.5 48,57.6 54.2,61.2 "/>
    <polygon points="48,57.6 50,56.5 48,55.3 46,56.5 "/>
    <polygon points="48,64.8 46,65.9 48,67.1 50,66 "/>
    <polygon points="41.8,61.2 39.8,60.1 37.8,61.2 39.8,62.4 "/>
    <polygon points="54.2,61.2 56.2,62.4 58.2,61.3 56.2,60.1 "/>
    <!-- <text x="0" y="111" fill="#000000" font-size="5px" font-weight="bold" font-family="'Helvetica Neue', Helvetica, Arial-Unicode, Arial, Sans-serif">Created by Sewon Park</text>
    <text x="0" y="116" fill="#000000" font-size="5px" font-weight="bold" font-family="'Helvetica Neue', Helvetica, Arial-Unicode, Arial, Sans-serif">from the Noun Project</text> -->
</svg>