<svg xmlns="http://www.w3.org/2000/svg" 
    xmlns:xlink="http://www.w3.org/1999/xlink" version="1.1" x="0px" y="0px" viewBox="0 0 30 37.5" xml:space="preserve">
    <g transform="translate(-30 -200)">
        <g xmlns="http://www.w3.org/2000/svg" 
            xmlns:xlink="http://www.w3.org/1999/xlink">
            <path d="M54,211l-2.879,5c-0.31,0.62,0.001,1.37,0.658,1.589L54,218c0,4-2,6,6,4v-20.36C56.507,203.14,54,207.083,54,211z M58,214    c-0.552,0-1-0.448-1-1c0-0.552,0.448-1,1-1s1,0.448,1,1C59,213.552,58.552,214,58,214z"/>
            <path d="M42,201c-4.971,0-9,5.029-9,10l-2.879,5c-0.31,0.62,0.001,1.37,0.658,1.589L33,218c0,4-2,6,6,4v7l11-4l-2-7    c1.841-1.648,3-5.335,3-8C51,205.029,46.971,201,42,201z M37,214c-0.552,0-1-0.448-1-1c0-0.552,0.448-1,1-1s1,0.448,1,1    C38,213.552,37.552,214,37,214z M36,207.1c1.201-2.3,3.385-4.1,6-4.1c3.86,0,7,3.14,7,7c0,0.608-0.076,1.297-0.217,2L36,207.1z"/>
        </g>
    </g>
    <!-- <text x="0" y="45" fill="#000000" font-size="5px" font-weight="bold" font-family="'Helvetica Neue', Helvetica, Arial-Unicode, Arial, Sans-serif">Created by Hea Poh Lin</text>
    <text x="0" y="50" fill="#000000" font-size="5px" font-weight="bold" font-family="'Helvetica Neue', Helvetica, Arial-Unicode, Arial, Sans-serif">from the Noun Project</text> -->
</svg>